<svg xmlns="http://www.w3.org/2000/svg" viewBox="0 0 45.53 45.53"><defs><style>.cls-1{fill:#fff;}.cls-2{fill:#c7c4be;}</style></defs><g id="Слой_2" data-name="Слой 2"><g id="Capa_1" data-name="Capa 1"><ellipse class="cls-1" cx="22.86" cy="23.45" rx="15.35" ry="18.8"/><path class="cls-2" d="M22.77,0A22.77,22.77,0,1,0,45.53,22.76,22.76,22.76,0,0,0,22.77,0Zm0,6.81a7.53,7.53,0,1,1-7.53,7.53A7.53,7.53,0,0,1,22.77,6.81Zm0,32.77a16.71,16.71,0,0,1-10.88-4,3.24,3.24,0,0,1-1.13-2.44,7.61,7.61,0,0,1,7.64-7.6h8.76a7.59,7.59,0,0,1,7.62,7.6,3.17,3.17,0,0,1-1.13,2.43A16.66,16.66,0,0,1,22.76,39.58Z"/></g></g></svg>